<?xml version="1.0" encoding="utf-8"?><!-- Uploaded to: SVG Repo, www.svgrepo.com, Generator: SVG Repo Mixer Tools -->
<svg width="800px" height="800px" viewBox="0 0 24 24" fill="none" xmlns="http://www.w3.org/2000/svg">
<path d="M5 20.9999H19M8 7.99989H16M7.15 20.4999L14.9145 14.0483M16.8001 20.3416L9.07029 14.0989M10 10.9999L7 20.9999M14 10.9999L17 20.9999M6 5.99989L11.2845 3.35766C11.5468 3.22647 11.678 3.16088 11.8156 3.13507C11.9375 3.1122 12.0625 3.1122 12.1844 3.13507C12.322 3.16088 12.4532 3.22647 12.7155 3.35766L18 5.99989M8 4.99989V9.39989C8 9.95994 8 10.24 8.10899 10.4539C8.20487 10.642 8.35785 10.795 8.54601 10.8909C8.75992 10.9999 9.03995 10.9999 9.6 10.9999H14.4C14.9601 10.9999 15.2401 10.9999 15.454 10.8909C15.6422 10.795 15.7951 10.642 15.891 10.4539C16 10.24 16 9.95994 16 9.39989V4.99989" stroke="#000000" stroke-width="2" stroke-linecap="round" stroke-linejoin="round"/>
</svg>